<svg width="87" height="73" viewBox="0 0 87 73" fill="none" xmlns="http://www.w3.org/2000/svg">
<g opacity="0.5">
<circle cx="43" cy="55" r="7" fill="white"/>
<ellipse cx="20" cy="60.5" rx="9" ry="8.5" fill="white"/>
<ellipse cx="8.5" cy="61" rx="8.5" ry="7" fill="white"/>
<ellipse cx="52.5" cy="52" rx="10.5" ry="10" fill="white"/>
<circle cx="34" cy="57" r="10" fill="white"/>
<ellipse cx="73.5" cy="40" rx="11.5" ry="12" fill="white"/>
<ellipse cx="61" cy="51" rx="9" ry="11" fill="white"/>
</g>
<circle cx="46" cy="62" r="7" fill="white"/>
<ellipse cx="22" cy="63.5" rx="9" ry="8.5" fill="white"/>
<ellipse cx="8" cy="65" rx="8" ry="7" fill="white"/>
<ellipse cx="56.5" cy="62" rx="10.5" ry="10" fill="white"/>
<ellipse cx="34.5" cy="63" rx="9.5" ry="10" fill="white"/>
<ellipse cx="75.5" cy="47" rx="11.5" ry="12" fill="white"/>
<circle cx="70" cy="56" r="11" fill="white"/>
<g clip-path="url(#clip0_2_96)">
<path fill-rule="evenodd" clip-rule="evenodd" d="M13.5403 6H13.4597C13.4597 5.21143 13.2139 4.52197 12.7228 3.93262C12.2317 3.34326 11.6576 3.04834 11 3.04834V2.95166C11.6576 2.95166 12.2317 2.65674 12.7228 2.06592C13.2139 1.4751 13.4597 0.786133 13.4597 0H13.5403C13.5403 0.788574 13.7861 1.47803 14.2772 2.06738C14.7683 2.65674 15.3424 2.95166 16 2.95166V3.04834C15.3429 3.04834 14.7683 3.34326 14.2772 3.93262C13.7861 4.52197 13.5403 5.21094 13.5403 6Z" fill="white"/>
</g>
<g clip-path="url(#clip1_2_96)">
<path fill-rule="evenodd" clip-rule="evenodd" d="M42.5403 11H42.4597C42.4597 10.2114 42.2139 9.52197 41.7228 8.93262C41.2317 8.34326 40.6576 8.04834 40 8.04834V7.95166C40.6576 7.95166 41.2317 7.65674 41.7228 7.06592C42.2139 6.4751 42.4597 5.78613 42.4597 5H42.5403C42.5403 5.78857 42.7861 6.47803 43.2772 7.06738C43.7683 7.65674 44.3424 7.95166 45 7.95166V8.04834C44.3429 8.04834 43.7683 8.34326 43.2772 8.93262C42.7861 9.52197 42.5403 10.2109 42.5403 11Z" fill="white"/>
</g>
<g clip-path="url(#clip2_2_96)">
<path fill-rule="evenodd" clip-rule="evenodd" d="M33.5242 24H33.4758C33.4758 23.4743 33.3284 23.0146 33.0337 22.6217C32.739 22.2288 32.3945 22.0322 32 22.0322V21.9678C32.3945 21.9678 32.739 21.7712 33.0337 21.3773C33.3284 20.9834 33.4758 20.5241 33.4758 20H33.5242C33.5242 20.5257 33.6716 20.9854 33.9663 21.3783C34.261 21.7712 34.6055 21.9678 35 21.9678V22.0322C34.6057 22.0322 34.261 22.2288 33.9663 22.6217C33.6716 23.0146 33.5242 23.474 33.5242 24Z" fill="white"/>
</g>
<g clip-path="url(#clip3_2_96)">
<path fill-rule="evenodd" clip-rule="evenodd" d="M15.0161 27H14.9839C14.9839 26.7371 14.8856 26.5073 14.6891 26.3109C14.4927 26.1144 14.263 26.0161 14 26.0161V25.9839C14.263 25.9839 14.4927 25.8856 14.6891 25.6886C14.8856 25.4917 14.9839 25.262 14.9839 25H15.0161C15.0161 25.2629 15.1144 25.4927 15.3109 25.6891C15.5073 25.8856 15.737 25.9839 16 25.9839V26.0161C15.7371 26.0161 15.5073 26.1144 15.3109 26.3109C15.1144 26.5073 15.0161 26.737 15.0161 27Z" fill="white"/>
</g>
<g clip-path="url(#clip4_2_96)">
<path fill-rule="evenodd" clip-rule="evenodd" d="M5.01611 24H4.98389C4.98389 23.7371 4.88558 23.5073 4.68913 23.3109C4.49268 23.1144 4.26302 23.0161 4 23.0161V22.9839C4.26302 22.9839 4.49268 22.8856 4.68913 22.6886C4.88558 22.4917 4.98389 22.262 4.98389 22H5.01611C5.01611 22.2629 5.11442 22.4927 5.31087 22.6891C5.50732 22.8856 5.73698 22.9839 6 22.9839V23.0161C5.73714 23.0161 5.50732 23.1144 5.31087 23.3109C5.11442 23.5073 5.01611 23.737 5.01611 24Z" fill="white"/>
</g>
<g clip-path="url(#clip5_2_96)">
<path fill-rule="evenodd" clip-rule="evenodd" d="M9.01611 21H8.98389C8.98389 20.7371 8.88558 20.5073 8.68913 20.3109C8.49268 20.1144 8.26302 20.0161 8 20.0161V19.9839C8.26302 19.9839 8.49268 19.8856 8.68913 19.6886C8.88558 19.4917 8.98389 19.262 8.98389 19H9.01611C9.01611 19.2629 9.11442 19.4927 9.31087 19.6891C9.50732 19.8856 9.73698 19.9839 10 19.9839V20.0161C9.73714 20.0161 9.50732 20.1144 9.31087 20.3109C9.11442 20.5073 9.01611 20.737 9.01611 21Z" fill="white"/>
</g>
<g clip-path="url(#clip6_2_96)">
<path fill-rule="evenodd" clip-rule="evenodd" d="M39.5242 18H39.4758C39.4758 17.4743 39.3284 17.0146 39.0337 16.6217C38.739 16.2288 38.3945 16.0322 38 16.0322V15.9678C38.3945 15.9678 38.739 15.7712 39.0337 15.3773C39.3284 14.9834 39.4758 14.5241 39.4758 14H39.5242C39.5242 14.5257 39.6716 14.9854 39.9663 15.3783C40.261 15.7712 40.6055 15.9678 41 15.9678V16.0322C40.6057 16.0322 40.261 16.2288 39.9663 16.6217C39.6716 17.0146 39.5242 17.474 39.5242 18Z" fill="white"/>
</g>
<g clip-path="url(#clip7_2_96)">
<path fill-rule="evenodd" clip-rule="evenodd" d="M5.52417 10H5.47583C5.47583 9.47428 5.32837 9.01465 5.03369 8.62175C4.73901 8.22884 4.39453 8.03223 4 8.03223V7.96777C4.39453 7.96777 4.73901 7.77116 5.03369 7.37728C5.32837 6.9834 5.47583 6.52409 5.47583 6H5.52417C5.52417 6.52572 5.67163 6.98535 5.96631 7.37826C6.26099 7.77116 6.60547 7.96777 7 7.96777V8.03223C6.60571 8.03223 6.26099 8.22884 5.96631 8.62175C5.67163 9.01465 5.52417 9.47396 5.52417 10Z" fill="white"/>
</g>
<g clip-path="url(#clip8_2_96)">
<path fill-rule="evenodd" clip-rule="evenodd" d="M14.5242 14H14.4758C14.4758 13.4743 14.3284 13.0146 14.0337 12.6217C13.739 12.2288 13.3945 12.0322 13 12.0322V11.9678C13.3945 11.9678 13.739 11.7712 14.0337 11.3773C14.3284 10.9834 14.4758 10.5241 14.4758 10H14.5242C14.5242 10.5257 14.6716 10.9854 14.9663 11.3783C15.261 11.7712 15.6055 11.9678 16 11.9678V12.0322C15.6057 12.0322 15.261 12.2288 14.9663 12.6217C14.6716 13.0146 14.5242 13.474 14.5242 14Z" fill="white"/>
</g>
<g clip-path="url(#clip9_2_96)">
<path fill-rule="evenodd" clip-rule="evenodd" d="M32.0161 8H31.9839C31.9839 7.73714 31.8856 7.50732 31.6891 7.31087C31.4927 7.11442 31.263 7.01611 31 7.01611V6.98389C31.263 6.98389 31.4927 6.88558 31.6891 6.68864C31.8856 6.4917 31.9839 6.26204 31.9839 6H32.0161C32.0161 6.26286 32.1144 6.49268 32.3109 6.68913C32.5073 6.88558 32.737 6.98389 33 6.98389V7.01611C32.7371 7.01611 32.5073 7.11442 32.3109 7.31087C32.1144 7.50732 32.0161 7.73698 32.0161 8Z" fill="white"/>
</g>
<g clip-path="url(#clip10_2_96)">
<path fill-rule="evenodd" clip-rule="evenodd" d="M29.0161 15H28.9839C28.9839 14.7371 28.8856 14.5073 28.6891 14.3109C28.4927 14.1144 28.263 14.0161 28 14.0161V13.9839C28.263 13.9839 28.4927 13.8856 28.6891 13.6886C28.8856 13.4917 28.9839 13.262 28.9839 13H29.0161C29.0161 13.2629 29.1144 13.4927 29.3109 13.6891C29.5073 13.8856 29.737 13.9839 30 13.9839V14.0161C29.7371 14.0161 29.5073 14.1144 29.3109 14.3109C29.1144 14.5073 29.0161 14.737 29.0161 15Z" fill="white"/>
</g>
<defs>
<clipPath id="clip0_2_96">
<rect width="5" height="6" fill="white" transform="translate(11)"/>
</clipPath>
<clipPath id="clip1_2_96">
<rect width="5" height="6" fill="white" transform="translate(40 5)"/>
</clipPath>
<clipPath id="clip2_2_96">
<rect width="3" height="4" fill="white" transform="translate(32 20)"/>
</clipPath>
<clipPath id="clip3_2_96">
<rect width="2" height="2" fill="white" transform="translate(14 25)"/>
</clipPath>
<clipPath id="clip4_2_96">
<rect width="2" height="2" fill="white" transform="translate(4 22)"/>
</clipPath>
<clipPath id="clip5_2_96">
<rect width="2" height="2" fill="white" transform="translate(8 19)"/>
</clipPath>
<clipPath id="clip6_2_96">
<rect width="3" height="4" fill="white" transform="translate(38 14)"/>
</clipPath>
<clipPath id="clip7_2_96">
<rect width="3" height="4" fill="white" transform="translate(4 6)"/>
</clipPath>
<clipPath id="clip8_2_96">
<rect width="3" height="4" fill="white" transform="translate(13 10)"/>
</clipPath>
<clipPath id="clip9_2_96">
<rect width="2" height="2" fill="white" transform="translate(31 6)"/>
</clipPath>
<clipPath id="clip10_2_96">
<rect width="2" height="2" fill="white" transform="translate(28 13)"/>
</clipPath>
</defs>
</svg>
